<svg xmlns="http://www.w3.org/2000/svg" viewBox="0 0 1300 1300"><defs><style>.cls-1,.cls-6{fill:#fff;}.cls-2{fill:#0eb9cd;}.cls-2,.cls-4,.cls-5,.cls-6,.cls-8{fill-rule:evenodd;}.cls-3,.cls-5{fill:#bce3dd;}.cls-4{fill:#0496a7;}.cls-7,.cls-8{fill:#080e0e;}</style></defs><title>Asset 12</title><g id="Layer_2" data-name="Layer 2"><g id="Layer_1-2" data-name="Layer 1"><rect class="cls-1" width="1300" height="1300"></rect><path class="cls-2" d="M603.91,914.45c6.5,9.29,23.22,38.39,31.27,43.34s3.71,7.43,21.67,8.36,20.13,4.33,26.32.62,17-8.36,16.1-13-1.86-3.41-8.67-10.53-23.53-19.5-31.58-31.89a98.62,98.62,0,0,1-11.46-25.08s-1.9-7.86-4.17-6.37S629,890.61,623.1,895.56s-19.19,18.89-19.19,18.89m-82.38,24.78s10.92,20.66,12.77,25.08a57.4,57.4,0,0,0,13,17.88c6,5.34,13,13.7,21.59,16s14.63,3.25,18.11,4.18a89.18,89.18,0,0,0,17.19,2.09c5.11,0,15.32-2.32,15.56-5.58s3.48-10.44-.24-12.77-8.59-7.19-16.72-12.54-22.29-20.43-22.29-20.43S574,938.3,574,935.05s.23-13.7,4.65-17.65,12.3-7.2,16.48-8.13,13-6.27,13-6.27l41.79-27.4,20-10.21,14.17-12.31s30.65-49.92,31.34-51.32,5.34-29,5.34-29l-3.69-23.24c9.1.77,30.71,4,33.53,9.49,3.15,6.13,2.41,5,5,15s-.55,17.83,11,19,15.42,4.08,15.61-7.8.74-15.79.18-26-5.2-15.79-6.31-19.88-2-7.8-4.83-9.84a54.16,54.16,0,0,0-20.62-8.55c-10-1.85-33.25-3.71-33.25-3.71s-3.4,12.73-3.09,14.67c0,0-22.75-37.15-24.15-44.58s-8.36-25.54-7-30.65,11.14-29.72,11.14-29.72,40.41-3.72,45.05-3.72,39.94-7.89,47.37-10.68,32.51-18.58,39-22.29,39-35.76,39-35.76,25.77-60.61,26-62.23-2.09-24.15-2.09-24.15l-19.51-65-28.79-42.72-42.26-25.54-53.18-21.37L700.1,310H668.29l-41.57,8.59L584,334.34l-17.42,9.75-45,45.05L507.6,411.43l-16.25,47.84,1.39,55.26,10.68,26.94L530.59,580l26,23,39.24,37.85,19.5,36-7.19,9.29L590.5,724.67l-20.44,2.79s-47.36,7-50.62,7-47.83-11.15-47.83-11.15l-26.94-24.15L425.17,688l-13.93,6,7.43,37.62s15.56,53.87,17.65,55.73,30.18,29.49,30.18,29.49l37.62,33.9,10,19,12.19,18.92-5.22,30.88Z"></path><path class="cls-3" d="M670.12,964.31a16.77,16.77,0,0,0,24.37-21.69,125.13,125.13,0,0,1-52.6-39.24,52.46,52.46,0,0,0,28.23,60.93M612.32,900a35.12,35.12,0,0,0-31.88,28.19q-1.22-2.6-2.28-5.22l-1.46.22v0a14.06,14.06,0,0,0-6.1,2.22c-3.34,2.4-3.72,6.48-3.15,10.26.71,4.61,3,9.95,7.14,15.7h0c6,8.14,13.21,15.06,22.94,18.5,10.38,3.68,16.2,11.06,17.71,19.22,1.63,8.87-2.1,17.41-8.87,23.14a30.12,30.12,0,0,1-3.91,2.79A105.79,105.79,0,0,0,579,999.28c6.58.56,11.18-.81,13.85-3.06.85-.72,2-2.1,1.79-3.32s-1.51-2.27-4-3.17c-13.73-4.84-24.25-14.3-32.82-25.82h0l-.09-.12c-6.24-8.68-9.82-17.2-11-24.95-2.88-18.84,8.17-33.56,26.93-36.42v0l.21,0a44.21,44.21,0,0,0,32-66.68,10.52,10.52,0,1,1,18-10.86,65.16,65.16,0,0,1,9.31,35.4A64.41,64.41,0,0,1,631.92,871q2.31-1.1,4.55-2.31A105.34,105.34,0,0,0,623.39,891h0l-1,.67a35.53,35.53,0,0,0-6.09,4.88l-.55.55A34.33,34.33,0,0,0,612.32,900Z"></path><path class="cls-4" d="M564.72,725.22q-78.44,19.2-132.78-26.15a94.48,94.48,0,0,0,95.57,69.6q48-9.39,62.06-8.62-.26-36.75-24.85-34.83"></path><path class="cls-4" d="M698.83,622.76a53,53,0,0,0-13,49.32c-66.62-23.56-119.35-95.39-133.31-170.59A210.78,210.78,0,0,0,698.83,622.76"></path><path class="cls-5" d="M755.61,774l12.85,19.15A42.27,42.27,0,0,0,729,721a33.58,33.58,0,0,1,26.65,53"></path><path class="cls-6" d="M646.22,882.3a125.61,125.61,0,0,0,62.87-151.07c-35.5-43.69-65.22-21.61-53.87,17a35.9,35.9,0,0,1,3.84,60.87q-18.82,24.78-18.83,24.77,6,48.4,6,48.41"></path><path class="cls-5" d="M798.09,334.81c124,91.46,107.84,215.54-6.31,270.17,151.53-115.69,10.91-334.35-196.34-264.09a198.6,198.6,0,0,1,202.65-6.08"></path><path class="cls-2" d="M583.35,628.8s-64-56.8-62.15-58.12-18.84-31.89-18.84-31.89L486.6,459.46l13-40.41,32.74-49.22,23.68-20,70.69-31.31-21-24.19L589,288.09,578.09,296s-.7,14.16.23,18.57,1.4,13.47.93,15.1-6.27,3.94-10,7.66-11.38,5.8-11.38,5.8-16.72-5.11-18.81-5.57-20.2-5.11-20.2-5.11l-7.66,6.74a147.77,147.77,0,0,1,3.94,19.73c.93,8.83-1.85,10.22,1.63,10.92s-12.54,34.59-12.54,34.59l-23.92-3.71-16.95,7.43s6.5,18.81,7.43,20.43,10.68,15.79,11.85,16.49.11,26.59.11,26.59l-19,3.71-14.28,10.1s-1.86,10-.11,11.27,11,7.89,13.58,9.17,17.07,5.45,17.88,5.69,14.72,9.95,14.72,9.95l4.2,24.88-8.24,7L480.1,569.87s.47,13.12,2.56,15.09,9.52,3.83,18.81,2.56,15-2.91,16.72-2.91,13.7.35,14.27.7,8.6,15.09,8.6,15.09l-4.18,16.26s-3.72,23-1.86,23.92,13.47,4.41,17.42,4.64,30.91-16.42,30.91-16.42"></path><path class="cls-7" d="M638.67,895.54l-.47.1a65,65,0,0,1-18.15,16.73c-1.33.82-2.69,1.6-4.07,2.32q1,2.43,2.19,4.76a76.78,76.78,0,0,0,5.65,9.43,71.24,71.24,0,0,0,21.69,20.46,64.78,64.78,0,0,0,27.09,9.08l.22,0c8.83.78,14.08-1.12,16.37-3.86a3.52,3.52,0,0,0,.83-1.48,1.41,1.41,0,0,0,0-.74c-.25-.73-1.31-1.41-3.21-1.76a57.46,57.46,0,0,1-18-6.73,72.4,72.4,0,0,1-16-12.45l-.12-.13h0a52.42,52.42,0,0,1-12.57-24.09,55.52,55.52,0,0,1-1.41-11.67m86.62-154.92.91.11.83.1.53.07c12,1.26,21.86,4.69,28.77,10.42,7.76,6.44,11.69,15.17,10.92,26.32l0,.21h0c-.21,2.32.21,3.74.93,4.29a1.33,1.33,0,0,0,.67.26,3,3,0,0,0,1.48-.2c2.41-1,4.83-4.08,6.22-9.94l.09-.35a33.94,33.94,0,0,0-7.7-28.25,42.57,42.57,0,0,0-13.25-10.34,43.93,43.93,0,0,0-16.5-4.45c-.31,0-.62-.06-.93-.11-6.25-.65-12.16-1.47-17.72-2.53A122.36,122.36,0,0,1,725.29,740.62ZM524.36,366.09a196.38,196.38,0,0,1,17.92-16.48c-6.16-4-11.33-6.91-15.62-8.51-3.57-1.32-5.89-1.56-7.08-.56s-1.49,3.42-.9,7.34C519.39,352.59,521.33,358.63,524.36,366.09Zm-38.85,64a159.43,159.43,0,0,1,8.81-21.55,78.89,78.89,0,0,0-16-.87c-3.79.32-6,1.08-6.64,2.48s.09,3.75,2.28,7C476.38,420.86,480.26,425.12,485.51,430.07Zm-5.27,73.86A154.79,154.79,0,0,1,478,480a78.75,78.75,0,0,0-15.15,5.69c-3.33,1.8-5,3.38-5.06,4.94s1.58,3.39,4.9,5.52C466.72,498.76,472.58,501.28,480.24,503.93Zm31.41,71.77A175.57,175.57,0,0,1,499,556.27a78.17,78.17,0,0,0-9.71,12.64c-1.89,3.31-2.49,5.57-1.69,6.93s3.12,2,7,2.09C499,578,504.67,577.21,511.65,575.7Zm53.84,52.56c-2.86-2.51-5.79-5-8.73-7.58s-5.78-5-8.65-7.49a79.42,79.42,0,0,0-5.52,14.91c-.82,3.7-.73,6,.44,7.09s3.6,1,7.36-.07A78.14,78.14,0,0,0,565.49,628.26Zm5.65-298.39c-1.35-10.7-1.76-19.31-.93-26.06,1.28-10.45,5.38-17.17,13-20.63,7.9-3.56,15.62-2,24.14,4.2,5.74,4.16,12.05,10.71,19.43,19.47a249.48,249.48,0,0,1,82.36-8.47c42.47,2.81,81.63,16.74,113.17,38.78,31.81,22.23,55.88,52.7,67.88,88.39A162.64,162.64,0,0,1,899,484.27a140.06,140.06,0,0,1-13.36,54.38,7.27,7.27,0,0,1-.34.81c-17.14,36-45.91,62.34-80,78.11-30.3,14-64.84,19.65-99.13,16.28a47.16,47.16,0,0,0-11.61,29.08c-.59,12.57,3.44,25.75,11.62,37.35a78.42,78.42,0,0,0,14.4,4.53,177.24,177.24,0,0,0,19.85,3.06l.35,0a64.85,64.85,0,0,1,24.31,6.59,63.43,63.43,0,0,1,19.75,15.44,54.91,54.91,0,0,1,12.42,46A9.54,9.54,0,0,1,797,777c-3.18,13.43-10.79,21.39-19,24.66a23.75,23.75,0,0,1-11.69,1.6,22.22,22.22,0,0,1-11-4.46c-6.13-4.7-10.06-12.58-9.16-22.8h0c.21-3.79-1-6.63-3.36-8.59-3-2.51-7.77-4.23-13.93-5.2a131.27,131.27,0,0,1-6.68,53.2,129.79,129.79,0,0,1-32.58,51.37,117.87,117.87,0,0,1-29,20.57c-1.33,3.92-1.45,9.41-.13,15.12A31.24,31.24,0,0,0,668,916.9h0a51.13,51.13,0,0,0,11.14,8.71A36.78,36.78,0,0,0,690.56,930c10.11,1.88,16.63,8,19.25,15.42a22.11,22.11,0,0,1,.78,11.84,24.49,24.49,0,0,1-5.27,10.87c-6.17,7.37-17.63,12.76-34.36,11.26l-.33,0a85.57,85.57,0,0,1-36-11.95,92.37,92.37,0,0,1-28.11-26.47,98,98,0,0,1-7.13-12.06q-1.86-3.71-3.4-7.52c-.48.08-1,.16-1.46.22v0a14.07,14.07,0,0,0-6.1,2.21,7.65,7.65,0,0,0-2.74,3.64,13.48,13.48,0,0,0-.4,6.63c.7,4.61,3,9.94,7.13,15.69h0a64.64,64.64,0,0,0,10.68,11.51,40.61,40.61,0,0,0,12.26,7c10.38,3.68,16.2,11.06,17.7,19.21a23,23,0,0,1-1.25,12.69,26.48,26.48,0,0,1-7.62,10.46c-8.24,7-22.24,10.81-40.94,5.87h0A102.52,102.52,0,0,1,508.8,899c0-.09,0-.17.05-.25h0c1.13-5.5,2.06-11,1.8-16.11a22.62,22.62,0,0,0-4.27-12.51l-.32-.47a81.91,81.91,0,0,1-7.81-13.17,12.82,12.82,0,0,1-1.27-.55,145.75,145.75,0,0,1-43.31-34.44c-13.1-15-25.06-34-35.75-58h0l-.12-.28c-9.22-22.27-14.67-39.73-16.34-52.57-2.22-17,1.83-27.8,12.18-32.8,8.07-3.9,15.46-2.89,23.48,2.2,5.71,3.64,11.64,9.56,18.82,17.46,9.84,10.82,21.38,19.19,34.33,23.69a69,69,0,0,0,37.63,2.06l.58-.16a326.61,326.61,0,0,1,35.85-6.55,134.94,134.94,0,0,1,18-1,129,129,0,0,1,16.14-28h0l.07-.09C608.8,674,597.28,658,579.1,640.6c-9.39,5.55-17.2,9.39-23.77,11.32-10.1,3-17.89,1.88-24.09-3.77-6.4-5.83-8-13.54-5.72-23.82,1.43-6.45,4.54-14.11,9-23.31q-5.43-5-10.35-10.31c-12.33,3.12-22.13,4.82-29.79,4.71-10.53-.15-17.66-3.5-21.92-10.74-4.39-7.46-3.64-15.29,1.56-24.41,3.46-6.07,9.09-12.85,16.67-20.83A164.14,164.14,0,0,1,485,523.65a8.68,8.68,0,0,1-1.92-.37c-13.12-4.08-23-8-29.82-12.37-8.85-5.67-13.13-12.27-12.92-20.67.21-8.67,5-14.94,14.24-20,5.94-3.21,14-5.94,24.25-8.64q.66-6.22,1.82-12.4c-9.85-8.63-17-15.91-21.3-22.4-5.81-8.75-7.07-16.5-3.51-24.11,3.68-7.86,10.57-11.69,21-12.56,7-.58,15.82.25,26.8,2q3.75-5.79,8-11.28c-5.54-12.5-9.09-22.49-10.29-30.48-1.55-10.37.6-17.93,7.07-23.32,6.67-5.56,14.52-6.1,24.36-2.45,6.74,2.5,14.73,7.25,24.43,13.91Q564,334,571.14,329.87ZM526.07,482.71a8.76,8.76,0,0,1-12.69-12.07,45.18,45.18,0,0,1,73,10.8,8.76,8.76,0,0,1-15.64,7.89,27.6,27.6,0,0,0-8.48-9.95c-.33-.24-.66-.47-1-.69A164.69,164.69,0,0,0,691.91,610.55c35.83,6.93,72.85,2.6,104.56-12.06,29.81-13.78,54.91-36.74,69.83-68.08q.19-.4.42-.78A119.4,119.4,0,0,0,878,483.45a141.91,141.91,0,0,0-7.7-51.23c-10.53-31.33-31.8-58.18-60-77.86-28.44-19.87-63.89-32.44-102.48-35a228.48,228.48,0,0,0-112.43,21.53c-33.07,15.79-60.85,39.41-77.89,68.77-16.9,29.14-22,61.18-16.44,91.84,5.65,31.18,22.34,61.06,48.84,85.12l.28.27c6.68,6.18,13.52,12.09,20.27,17.92,36.56,31.58,70.68,61.05,44.83,95.2h0c-10.1,13.62-16,26.57-17.28,37.17a24,24,0,0,0,.79,10.69,13,13,0,0,0,4.59,6.25c2.78,2.06,6.78,3.49,12.07,4.11l.57.08c12,1.27,21.8,4.69,28.7,10.42,7.75,6.43,11.68,15.17,10.91,26.32l0,.2h0c-.2,2.31.22,3.74.93,4.29a1.41,1.41,0,0,0,.67.26,3,3,0,0,0,1.49-.21c2.41-1,4.83-4.07,6.22-9.93a2,2,0,0,1,.09-.35,34,34,0,0,0-35.24-40,10.5,10.5,0,0,1-1.07-21,55,55,0,0,1,56.91,64.93c-.05.38-.12.77-.21,1.16-3.18,13.44-10.79,21.4-19,24.66a23.74,23.74,0,0,1-11.68,1.61,22.44,22.44,0,0,1-11-4.46c-6.13-4.7-10-12.59-9.16-22.81h0c.21-3.79-1-6.63-3.36-8.6-3.56-3-9.54-4.82-17.4-5.65-.3,0-.61,0-.92-.07-9-1.07-16.37-3.89-22.11-8.15A33.65,33.65,0,0,1,579,754.79a43.75,43.75,0,0,1-2-18.18c-3.11.12-6.54.4-10.27.83a304.92,304.92,0,0,0-33.47,6.14c-.3.07-.59.13-.89.17a89.71,89.71,0,0,1-49-2.73c-16.47-5.72-30.89-16.09-43-29.37-6-6.61-10.74-11.41-14.54-13.83-1.51-1-2.51-1.33-3.08-1.06-1.23.59-1.4,4.28-.5,11.16,1.43,11,6.4,26.62,14.88,47.14,9.79,22,20.6,39.18,32.31,52.62a131.91,131.91,0,0,0,21.23,19.69A81.42,81.42,0,0,1,517,761.82a10.51,10.51,0,1,1,14.15,15.55,60.15,60.15,0,0,0-8.19,79.9c.14.16.27.34.4.51a43,43,0,0,1,8.22,23.79c.38,7.34-.79,14.44-2.21,21.38h0a81.57,81.57,0,0,0,59.26,93.19h0c11.05,2.91,18.32,1.48,22-1.61a5.51,5.51,0,0,0,1.61-2.07,2.29,2.29,0,0,0,.18-1.24c-.2-1.1-1.51-2.28-4.05-3.18a61.22,61.22,0,0,1-18.59-10.6,85.53,85.53,0,0,1-14.22-15.21h0l-.09-.12c-6.24-8.67-9.82-17.2-11-24.94a34,34,0,0,1,1.47-17,28.29,28.29,0,0,1,10.23-13.43,34.8,34.8,0,0,1,15.23-6v0l.2,0a44.21,44.21,0,0,0,32-66.67,10.52,10.52,0,1,1,18-10.86,65.29,65.29,0,0,1,8.13,46.12,96.07,96.07,0,0,0,25.4-17.65,108.55,108.55,0,0,0,27.23-43,109.88,109.88,0,0,0,5.07-50.16,100.17,100.17,0,0,0-17.8-45.16h0c-11.34-15.65-16.93-33.81-16.11-51.36A68.43,68.43,0,0,1,683,630.17,185.7,185.7,0,0,1,539.37,475c-.77.2-1.54.42-2.29.68A27.52,27.52,0,0,0,526.07,482.71Zm82.6-170.11a78.43,78.43,0,0,0-11.55-11c-3.07-2.21-5.23-3.06-6.66-2.41s-2.36,2.88-2.84,6.77a74.7,74.7,0,0,0,.19,15.28C594.58,318,601.55,315.16,608.67,312.6Z"></path><path class="cls-8" d="M786.39,441.7c5.38-3.57,13.94-.14,19.13,7.67s5.05,17-.33,20.61-13.94.14-19.13-7.67-5-17,.33-20.61"></path><path class="cls-8" d="M830.32,416.87c5.37-3.58,13.94-.14,19.13,7.67s5,17-.33,20.61-13.94.14-19.13-7.67-5-17,.33-20.61"></path><path class="cls-6" d="M610,364a31.84,31.84,0,1,1-31.84,31.84A31.85,31.85,0,0,1,610,364"></path><path class="cls-8" d="M615.88,372.37a16.13,16.13,0,1,1-16.13,16.13,16.13,16.13,0,0,1,16.13-16.13"></path><path class="cls-6" d="M604.88,375.83a8.35,8.35,0,1,1-8.34,8.35,8.34,8.34,0,0,1,8.34-8.35"></path><path class="cls-6" d="M659.33,333.45a27.16,27.16,0,1,1-27.15,27.15,27.15,27.15,0,0,1,27.15-27.15"></path><path class="cls-8" d="M664.36,340.57a13.76,13.76,0,1,1-13.76,13.75,13.76,13.76,0,0,1,13.76-13.75"></path><path class="cls-6" d="M655,343.52a7.12,7.12,0,1,1-7.12,7.12,7.11,7.11,0,0,1,7.12-7.12"></path><path class="cls-4" d="M625.33,524.23c8.37,5.89,12.17,14.91,8.48,20.15s-13.46,4.73-21.83-1.16-12.17-14.91-8.48-20.16,13.46-4.72,21.83,1.17"></path><path class="cls-4" d="M654.4,560.51c6.2,4.36,9,11,6.28,14.93s-10,3.5-16.18-.86-9-11.05-6.28-14.94,10-3.5,16.18.87"></path><path class="cls-4" d="M666.69,534.17c5.6,3.94,8.14,10,5.67,13.48s-9,3.16-14.6-.78-8.14-10-5.67-13.48,9-3.16,14.6.78"></path><path class="cls-4" d="M694.49,569.34c4.42,3.11,6.43,7.88,4.48,10.65s-7.11,2.49-11.54-.62S681,571.49,683,568.72s7.11-2.49,11.54.62"></path><path class="cls-4" d="M622.31,487.59c3.85,4,4.92,9.25,2.4,11.66s-7.69,1.1-11.54-2.93-4.92-9.25-2.4-11.66,7.69-1.1,11.54,2.93"></path><path class="cls-4" d="M699.21,528.74c3.24,3.38,4.14,7.76,2,9.79s-6.46.92-9.69-2.46-4.14-7.77-2-9.79,6.46-.93,9.69,2.46"></path></g></g></svg>