<svg xmlns="http://www.w3.org/2000/svg" viewBox="0 0 1300 1300"><defs><style>.cls-1,.cls-14{fill:#fff;}.cls-12,.cls-2{fill:#2a130f;}.cls-3{fill:#faecdf;}.cls-10,.cls-11,.cls-12,.cls-13,.cls-14,.cls-3,.cls-4,.cls-5,.cls-6,.cls-7,.cls-8,.cls-9{fill-rule:evenodd;}.cls-4{fill:#d6afaf;}.cls-5{fill:#755252;}.cls-6{fill:#5d5151;}.cls-7{fill:#e3ae92;}.cls-8{fill:#e7d8d4;}.cls-9{fill:#ae938e;}.cls-10{fill:#fde2e4;}.cls-11{fill:#f48c97;}.cls-13{fill:#da5c67;}</style></defs><title>Asset 9</title><g id="Layer_2" data-name="Layer 2"><g id="Layer_1-2" data-name="Layer 1"><rect class="cls-1" width="1300" height="1300"></rect><path class="cls-2" d="M775.19,950.69q-27-25-9.78-115.79h0a14.08,14.08,0,0,1,15.16-11.42A109.63,109.63,0,0,1,878.26,914h0a14.08,14.08,0,0,1-5.43,13.62q-67.71,50.76-97.61,23m15.49-96.93q-10.41,63.21,3.71,76.3,11.67,10.82,54.2-19.54a81.51,81.51,0,0,0-57.91-56.76Z"></path><path class="cls-3" d="M509.42,837.49q31.48,166.32-85.11,78.92a95.55,95.55,0,0,1,85.11-78.92"></path><path class="cls-2" d="M494.28,930.06Q508.4,917,498,853.76a81.51,81.51,0,0,0-57.91,56.76q42.53,30.36,54.2,19.54m29-95.16q17.19,90.78-9.78,115.79-29.89,27.73-97.61-23A14.08,14.08,0,0,1,410.44,914h0a109.63,109.63,0,0,1,97.68-90.55,14.08,14.08,0,0,1,15.16,11.42Z"></path><path class="cls-3" d="M576.71,782.54c11.47-24.82,24.61-42.13,38.4-52,5.52,26.76,16.73,45.06,29.65,45.06,12.61,0,23.59-17.43,29.25-43.13,14.23,11.22,27.67,30.43,39.15,57.57l.08,101.88c-38.42,89.38-98.11,89.38-136.53,0Z"></path><path class="cls-2" d="M606.1,759.67a160.09,160.09,0,0,0-15.26,26V889c9.44,21.27,19.94,36.52,30.82,45.8,7.83,6.68,15.72,10,23.32,10s15.48-3.35,23.31-10c10.9-9.3,21.42-24.59,30.88-45.92l-.07-95.94a181.66,181.66,0,0,0-15.86-29.37c-1-1.47-2-2.88-3-4.24a79.5,79.5,0,0,1-6.86,12.62c-7.65,11.29-17.39,17.77-28.61,17.77-11.46,0-21.37-6.76-29.09-18.5a82.51,82.51,0,0,1-7.4-14.38c-.73.92-1.45,1.87-2.17,2.85m-41.78,16.09a192.15,192.15,0,0,1,19.15-32.87c7.44-10.08,15.3-18,23.42-23.85a14.12,14.12,0,0,1,22.22,9.64c2.44,11.43,5.93,20.8,10.06,27.07,2.38,3.62,4.35,5.7,5.59,5.7s3-1.93,5.33-5.3c4.09-6,7.6-15.3,10.12-26.74a14.13,14.13,0,0,1,23.16-7.54c8,6.48,15.82,15.11,23.16,25.9a213.29,213.29,0,0,1,19.6,36.79,14,14,0,0,1,1.1,5.74l.08,101.6a13.89,13.89,0,0,1-1.14,5.56l0,0c-11.47,26.68-25,46.27-39.6,58.71-13.18,11.24-27.26,16.87-41.63,16.87s-28.46-5.63-41.64-16.87c-14.58-12.44-28.12-32-39.6-58.71a14.12,14.12,0,0,1-1.15-5.58h0V782.54A14,14,0,0,1,564.32,775.76Z"></path><path class="cls-3" d="M732.34,726.18h0a62.3,62.3,0,0,1,62.12,62.12V940.36a62.12,62.12,0,0,1-124.24,0V788.3a62.3,62.3,0,0,1,62.12-62.12"></path><path class="cls-3" d="M557.88,726.18h0A62.3,62.3,0,0,1,620,788.3V940.36a62.12,62.12,0,0,1-124.24,0V788.3a62.3,62.3,0,0,1,62.12-62.12"></path><path class="cls-4" d="M424.29,867.87c25.7,5.65,43.85,27.45,48.7,55.37a91.35,91.35,0,0,1-7.23,54.38c-7.26,15.19-18.68,26.53-33.26,30.25s-30.06-.75-43.7-10.58A91.2,91.2,0,0,1,356.38,953c-8.82-25.85-4.17-52.73,14.28-70.24,7.71,9.39,19.66,14.11,31.3,11.14,12.05-3.08,20.44-13.56,22.33-26.07"></path><path class="cls-5" d="M463.06,992.78c-10.86-.36-21.79-4.69-31.75-11.87a91.19,91.19,0,0,1-32.41-44.25c-8.82-25.85-4.17-52.73,14.28-70.24,7.71,9.4,19.66,14.12,31.3,11.14a28.41,28.41,0,0,0,9.36-4.32,28,28,0,0,0,9,9.68,58.41,58.41,0,0,0,4.43,5.24c.26.75.55,1.47.87,2.18a28.33,28.33,0,0,0,2.63,7.81l.17.52a28,28,0,0,0,.82,3.86,28.4,28.4,0,0,0,1,5.5,28.07,28.07,0,0,0,1,5.48,27.32,27.32,0,0,0,1,5.48,28.9,28.9,0,0,0,.73,4.5l.18,1v13.13a28.65,28.65,0,0,0,1.5,9v2a28.24,28.24,0,0,0,.44,5.49,28.57,28.57,0,0,0-.8,2.92,28.9,28.9,0,0,0-1.31,5.18,28.5,28.5,0,0,0-.66,3.71,33.06,33.06,0,0,0-1,3.69,27,27,0,0,0-1,2.54c-.8,1.62-1.63,3.19-2.27,4.89l-1.25,3.34c-.49.81-.91,1.63-1.33,2.47a27.63,27.63,0,0,0-1.73,4.07,28.05,28.05,0,0,0-3.08,5.84"></path><path class="cls-2" d="M445.54,896.16A46.54,46.54,0,0,0,432.87,886a46.37,46.37,0,0,1-5.41,7.85,42.59,42.59,0,0,1-47,12.58,45.94,45.94,0,0,1-7.79-3.64,46.84,46.84,0,0,0-5.44,14.33h0a60.51,60.51,0,0,0,2.56,31.42,78.24,78.24,0,0,0,10.93,21A74.25,74.25,0,0,0,397,985.87a49.94,49.94,0,0,0,17.17,8.26A29.3,29.3,0,0,0,441.94,987a49.69,49.69,0,0,0,11.13-15.46,74.68,74.68,0,0,0,6.5-22.19,78.87,78.87,0,0,0-.48-23.75c-2-11.53-6.72-21.7-13.55-29.46m-17.8-42a73,73,0,0,1,39,23.33C477,889.14,484,904.12,486.9,920.87a106.59,106.59,0,0,1,.59,32.14,103.07,103.07,0,0,1-9,30.68,78,78,0,0,1-17.53,24.19,57,57,0,0,1-53.35,13.62,77.88,77.88,0,0,1-27-12.79,102.32,102.32,0,0,1-22.63-22.56A106.47,106.47,0,0,1,343,957.56a88.39,88.39,0,0,1-3.43-46l0,0h0A73.16,73.16,0,0,1,361,872.59a14.13,14.13,0,0,1,20.93,1.68,19,19,0,0,0,7.92,5.54,14.86,14.86,0,0,0,8.69.44,14.7,14.7,0,0,0,7.56-4.75,19.28,19.28,0,0,0,4.28-9.72,14.12,14.12,0,0,1,16.06-11.87Q427.08,854,427.74,854.18Z"></path><path class="cls-4" d="M866.23,867.87c-25.69,5.65-43.84,27.45-48.7,55.37a91.27,91.27,0,0,0,7.24,54.38c7.26,15.19,18.67,26.53,33.25,30.25s30.07-.75,43.71-10.58A91.24,91.24,0,0,0,934.14,953c8.82-25.85,4.17-52.73-14.28-70.24-7.71,9.39-19.66,14.11-31.3,11.14-12-3.08-20.44-13.56-22.33-26.07"></path><path class="cls-5" d="M827.47,992.78c10.85-.36,21.78-4.69,31.74-11.87a91.15,91.15,0,0,0,32.42-44.25c8.82-25.85,4.17-52.73-14.28-70.24-7.71,9.4-19.66,14.12-31.3,11.14a28.32,28.32,0,0,1-9.36-4.32,28,28,0,0,1-9,9.68,58.51,58.51,0,0,1-4.44,5.24c-.26.75-.55,1.47-.86,2.18a28.36,28.36,0,0,1-2.64,7.81l-.17.52a28,28,0,0,1-.82,3.86,27.64,27.64,0,0,1-1,5.5,28.07,28.07,0,0,1-1,5.48,28.07,28.07,0,0,1-1,5.48,27.76,27.76,0,0,1-.73,4.5q-.08.51-.18,1v13.13a28.65,28.65,0,0,1-1.49,9v2a28.26,28.26,0,0,1-.45,5.49,26.21,26.21,0,0,1,.8,2.92,27.3,27.3,0,0,1,1.31,5.18,28.5,28.5,0,0,1,.66,3.71,31.09,31.09,0,0,1,1,3.69,27,27,0,0,1,1,2.54,49.23,49.23,0,0,1,2.27,4.89l1.26,3.34c.48.81.9,1.63,1.32,2.47a28.79,28.79,0,0,1,1.74,4.07,28.05,28.05,0,0,1,3.08,5.84"></path><path class="cls-2" d="M845,896.16A46.54,46.54,0,0,1,857.65,886a45.85,45.85,0,0,0,5.42,7.85,42.58,42.58,0,0,0,47,12.58,45.68,45.68,0,0,0,7.8-3.64,46.56,46.56,0,0,1,5.43,14.33h0c2,9.82,1.12,20.66-2.55,31.42a78.55,78.55,0,0,1-10.94,21,74.22,74.22,0,0,1-16.34,16.38,50,50,0,0,1-17.18,8.26A29.3,29.3,0,0,1,848.58,987a49.83,49.83,0,0,1-11.12-15.46,74.39,74.39,0,0,1-6.5-22.19,78.54,78.54,0,0,1,.48-23.75c2-11.53,6.71-21.7,13.54-29.46m17.8-42a73.08,73.08,0,0,0-39,23.33c-10.23,11.63-17.25,26.61-20.17,43.36A106.58,106.58,0,0,0,803,953a102.49,102.49,0,0,0,9,30.68,77.85,77.85,0,0,0,17.52,24.19A57,57,0,0,0,883,1021.5a77.8,77.8,0,0,0,27-12.79,102.36,102.36,0,0,0,22.64-22.56,106.73,106.73,0,0,0,14.9-28.59,88.19,88.19,0,0,0,3.43-46v0h0a73,73,0,0,0-21.35-38.87,14.09,14.09,0,0,0-19.92.5c-.36.38-.69.77-1,1.18a19,19,0,0,1-7.92,5.54,14.63,14.63,0,0,1-16.24-4.31,19.38,19.38,0,0,1-4.29-9.72,14.12,14.12,0,0,0-16.06-11.87Q863.44,854,862.78,854.18Z"></path><path class="cls-6" d="M616.71,746.15q2.2,127.92,2.21,127.92a64.44,64.44,0,0,1-2.21-127.92"></path><path class="cls-2" d="M557.88,740.31h0a48.18,48.18,0,0,0-48,48V940.36a48.18,48.18,0,0,0,48,48h0a48.16,48.16,0,0,0,48-48V788.3a48.16,48.16,0,0,0-48-48m0-28.25h0a76.43,76.43,0,0,1,76.25,76.24V940.36a76.45,76.45,0,0,1-76.25,76.24h0a76.43,76.43,0,0,1-76.24-76.24V788.3a76.41,76.41,0,0,1,76.24-76.24Z"></path><path class="cls-5" d="M488.34,999.49a101.25,101.25,0,0,0,38.39,20.91,33.33,33.33,0,0,1,58.9-.77,101.24,101.24,0,0,0,39.16-23.15l.08-41a99.94,99.94,0,0,0-136.53,0Z"></path><path class="cls-2" d="M499.68,1024.41A115.2,115.2,0,0,1,480,1010.88a14.09,14.09,0,0,1-5.78-11.39v-44h.07a14,14,0,0,1,4.46-10.26,113.8,113.8,0,0,1,155.17-.52,14,14,0,0,1,5,10.78l-.08,40.26a14.07,14.07,0,0,1-4.36,10.91,115.38,115.38,0,0,1-44.62,26.4v0a14.09,14.09,0,0,1-16.6-6.69,19.2,19.2,0,0,0-16.88-9.95,19.1,19.1,0,0,0-10,2.77,19.31,19.31,0,0,0-7.12,7.62h0a14.08,14.08,0,0,1-16.39,7.12,114.75,114.75,0,0,1-23.19-9.51m2.78-31.6a87.14,87.14,0,0,0,10.68,6.88,88.93,88.93,0,0,0,8.25,4,47.29,47.29,0,0,1,69.12-.95,85.63,85.63,0,0,0,8.83-4.55,86.74,86.74,0,0,0,11.39-8l0-28.26a86.15,86.15,0,0,0-108.32,0Z"></path><path class="cls-7" d="M767.51,726.18h0a27,27,0,0,1,27,27v222.4a27,27,0,0,1-27,26.94h0a27,27,0,0,1-27-26.94V753.13a27,27,0,0,1,27-27"></path><path class="cls-2" d="M732.34,740.31h0a48.18,48.18,0,0,0-48,48V940.36a48.18,48.18,0,0,0,48,48h0a48.18,48.18,0,0,0,48-48V788.3a48.18,48.18,0,0,0-48-48m0-28.25h0a76.41,76.41,0,0,1,76.24,76.24V940.36a76.43,76.43,0,0,1-76.24,76.24h0a76.45,76.45,0,0,1-76.25-76.24V788.3a76.43,76.43,0,0,1,76.25-76.24Z"></path><path class="cls-3" d="M598.1,370.2c63.58,10.34,27.63,53.33,15.07,65.51-26,39.83-75.93,46.46-139.24,7.05,27.94-68.95,72.83-97.42,124.17-72.56"></path><path class="cls-7" d="M625.25,395.42c63.58,10.34,27.63,53.34,15.07,65.52-26,39.83-75.93,46.46-139.24,7.05,27.94-69,72.84-97.42,124.17-72.57"></path><path class="cls-2" d="M615.82,390.43c-4.15-2.58-10.47-4.75-19.58-6.26a14.06,14.06,0,0,1-4.27-1.28c-1.64-.8-3.42-1.58-5.34-2.36-18.3-7.41-35.32-6.51-50.34,1.81-16.3,9-30.94,26.61-43.12,51.75-.45.92-.89,1.87-1.34,2.83,24,13.26,45.32,19,63.25,18.07,19.57-1,35.3-10.32,46.07-26.63a13.86,13.86,0,0,1,2.2-2.74c3.94-3.82,10.53-11.11,14.46-19,1.87-3.73,3.07-7.44,2.71-10.44-.22-1.87-1.57-3.84-4.7-5.79M602.4,356.64c12.26,2.18,21.5,5.6,28.31,9.84,11.45,7.12,16.65,16.43,17.84,26.54,1.06,9-1.47,18-5.58,26.22-5.35,10.7-13.53,20.13-18.9,25.51-15.87,23.49-39,36.93-67.67,38.38-26.07,1.32-56.52-7.61-89.92-28.4a14.09,14.09,0,0,1-5.62-17.27h0c2.14-5.28,4.46-10.5,6.94-15.62,14.74-30.45,33.35-52.23,54.81-64.11,22.73-12.59,48-14.15,74.62-3.35C598.86,355,600.58,355.79,602.4,356.64Z"></path><path class="cls-8" d="M717.13,393.53q-102,62.93-110.9-12.29c-5.25-71.38,32.68-107.45,52.42-100.82,10.15,3.41,14.54,14.16,16.23,33.12a110.23,110.23,0,0,0,42.25,80"></path><path class="cls-9" d="M744.35,392.59q-90.6,51.29-98.93-19.37c-3.09-42,8.75-71.72,23-87.77.13.27.26.54.4.81l14.78,29.05v-.08c0-2.69.36,4.9,1,7.17a28.06,28.06,0,0,0,3,9.07,34,34,0,0,0,2,3.66l.23.44a27.82,27.82,0,0,0,2.63,5.72,37.22,37.22,0,0,0,2.91,7.56l.49.91a28.48,28.48,0,0,0,2.59,6.17,28.33,28.33,0,0,0,1.92,4.87c.11.34.22.67.35,1a29.07,29.07,0,0,0,11.1,15.4,29.38,29.38,0,0,0,5.09,3.23c.53.39,1.05.78,1.56,1.19a45.11,45.11,0,0,0,4.48,3,43.48,43.48,0,0,0,5.68,3.55,28.14,28.14,0,0,0,15.7,4.39"></path><path class="cls-2" d="M639.93,407.9Q658.74,410,693.6,391a124.14,124.14,0,0,1-32.79-76.53h0c-.7-7.68-1.84-13.46-3.65-17.31-.86-1.84-1.84-2.94-3-3.34a3.14,3.14,0,0,0-.81,0c-3.25.24-7.59,2.82-12.23,7.62-5.84,6-11.35,15-15.32,26.84-4.59,13.65-7,30.9-5.55,51.66q3.16,26.19,19.66,28m84.28-2.2q-55,33.82-87.37,30.23-38.88-4.31-44.63-53.09c0-.25-.05-.51-.06-.76-1.8-24.76,1.26-45.82,7-62.8,5.41-16.1,13.25-28.67,21.72-37.43,9.67-10,20.61-15.5,30.56-16.23a29.94,29.94,0,0,1,11.73,1.44c9,3,15.27,9,19.56,18.13,3.32,7.06,5.23,16,6.22,27.14l0,.33h0a96.19,96.19,0,0,0,36.84,69.78,14.08,14.08,0,0,1-1.58,23.26Z"></path><path class="cls-3" d="M879.45,467.74Q821.07,481.27,826,509.33c-2.26,50.43,36.58,91.4,115.4,105.14C960,539.39,939,484.55,879.45,467.74"></path><path class="cls-7" d="M850.81,488.87q-39.93,9.25-36.58,28.45c-1.54,34.49,25,62.51,78.93,71.91,12.72-51.35-1.65-88.86-42.35-100.36"></path><path class="cls-2" d="M828.23,473.75q15.67-12.19,47.68-19.66a14,14,0,0,1,7.35.07c33.84,9.56,56.92,30,69.09,58.85,11.82,28,12.83,63.57,2.86,104.2A14.1,14.1,0,0,1,939,628.38c-41.2-7.19-72.52-21.59-93.74-40.92-23.1-21.05-34.3-47.64-33.41-77.12q-3-21.46,16.38-36.59M879,482.33q-23.28,5.79-33.48,13.72-6.66,5.18-5.67,10.86a14.59,14.59,0,0,1,.13,3.95c-.7,21.21,7.41,40.43,24.22,55.74,15.15,13.8,37.27,24.65,66.33,31.32,5.52-29.29,4.11-54.41-4.15-74C918.07,504.15,902.25,489.76,879,482.33Z"></path><path class="cls-9" d="M787.31,422.19c30.25,74,61.05,92.44,96.85,55.41,49.75-54.17,36.9-106.08,17.05-112.35-10.21-3.23-20.1,2.87-32.64,17.2a110.22,110.22,0,0,1-81.26,39.74"></path><path class="cls-8" d="M830.34,471.94q10.44-4.38,21.42-15.77c30.53-33.23,37.48-65.62,33.71-87.13a28.27,28.27,0,0,1-15.66,5.28l-1.87,1.05a33.93,33.93,0,0,1-7.52,2.91l-2.66,1.21-3.6,2a57.26,57.26,0,0,1-6.77,2.95l-2,1.11a27.54,27.54,0,0,1-3.81,4.46l-.1.11a26.7,26.7,0,0,1-2,2.43,26,26,0,0,1-1.74,2.21,27.69,27.69,0,0,1-2.4,4,28.88,28.88,0,0,1-2.15,3,41.75,41.75,0,0,1-28.74,14.4l-2.35.48a29.53,29.53,0,0,1-5.11.52c-.78.13-1.55.26-2.34.35a28.27,28.27,0,0,1-3.95.6q-.78.28-1.59.51l-.22.34c-.7,1.39-1.45,2.65-2.25,4l-.46.91c.86.93,1.68,1.93,2.51,2.89l7.75,6.89c.42.37.82.75,1.21,1.14,1.66,1.66,3.44,3.33,5,5.06,3,3.27,5.91,6.52,8.84,9.82l3.5,3.49a34.08,34.08,0,0,1,5.23,7.08,28.38,28.38,0,0,1,10.11,11.7"></path><path class="cls-2" d="M826.59,503.71c-18.62-10.77-35.72-35.91-52-75.44a14.08,14.08,0,0,1,12.26-20.15,96.09,96.09,0,0,0,70.56-34.28c.18-.22.36-.45.55-.66,7.36-8.41,14.18-14.54,21-18.27,8.86-4.85,17.46-6,26.49-3.13a31.35,31.35,0,0,1,11.72,7c7.15,6.56,12.68,17.25,14.77,30.61,1.89,12.06,1.08,26.61-3.9,42.39-5.46,17.27-16,36.3-33.52,55.41h0l-.22.23c-23,23.83-45.36,29.29-67.72,16.34M807.79,434c11.23,24,22.13,39.09,32.93,45.34,9.49,5.5,20.4,1.75,33.07-11.27h0c14.44-15.73,23-31.07,27.33-44.82,3.62-11.45,4.28-21.55,3-29.59-1.06-6.75-3.3-11.64-6-14.17a3.68,3.68,0,0,0-1.13-.76c-1.19-.37-2.63-.06-4.41.92-3.81,2.09-8.21,6.17-13.38,12.09l-.15.16A124.27,124.27,0,0,1,807.79,434Z"></path><path class="cls-7" d="M522.25,524.6q204.3,70.9,270,172.35c20.34-31.65,41.66-70.34,52.64-117.59A163.9,163.9,0,1,0,522.25,524.6"></path><path class="cls-3" d="M523.33,516.78q146.53,62.55,200.36,145.53C744,630.66,765.35,592,776.33,544.72A163.91,163.91,0,0,0,715,377.1a28.25,28.25,0,0,1-29.87,7.84c-1.18-.4-2.34-.77-3.48-1.24a37.89,37.89,0,0,1-4-1.08l-.42-.1-1.47-.3a28.32,28.32,0,0,1-4.36-1.15,42.4,42.4,0,0,1-5.39-.53H650.89a28.21,28.21,0,0,1-5.46,7.67l-1.6,1.59a89.46,89.46,0,0,1-12.1,8.21,28.56,28.56,0,0,1-5.94,3.06l-.34.21a28,28,0,0,1-8.7,4.22,28.85,28.85,0,0,1-3.93,1.5c-.85.31-1.61.73-2.45,1.09-.67.38-1.35.74-2,1.09a28.48,28.48,0,0,1-7.33,3.54l-.92.31a26.58,26.58,0,0,1-2.6,1l-.83.42a28.13,28.13,0,0,1-4.82,2.61,27.63,27.63,0,0,1-3.22,1.61l-.24.14a51,51,0,0,1-4.61,5L581.64,426a28.7,28.7,0,0,1-6.4,4.81l-1,1a28.58,28.58,0,0,1-4.06,3.37,28.35,28.35,0,0,1-4.74,5.36c-.31.35-.63.7-1,1a28.16,28.16,0,0,1-3.54,4.06c-.38.4-.77.78-1.16,1.16a29,29,0,0,1-3.93,3.41l-2,2a28.08,28.08,0,0,1-1.85,2.32,27.72,27.72,0,0,1-1.88,3c-.46.74-1,1.46-1.48,2.16a28.35,28.35,0,0,1-4.07,6,29.51,29.51,0,0,1-1.58,2.57c-.34.78-.71,1.54-1.11,2.27a28.17,28.17,0,0,1-2.42,6.46l-.85,1.7a1035.35,1035.35,0,0,1-5.39,8.66c-.24.47-.49.92-.74,1.37a28.5,28.5,0,0,1-2.57,4.74,25.32,25.32,0,0,1-1.15,2.8,28.13,28.13,0,0,1-1,5.68,28.05,28.05,0,0,1-4.39,14.86"></path><path class="cls-10" d="M651.12,540.89c107.13,35.76,177,118.15,156.09,184S682.48,815.2,575.35,779.44s-177-118.15-156.09-184S544,505.13,651.12,540.89"></path><path class="cls-11" d="M676.7,563.13c92.08,30.73,152.15,101.55,134.17,158.17s-107.21,77.6-199.29,46.87S459.43,666.61,477.41,610s107.21-77.6,199.29-46.86"></path><path class="cls-12" d="M584.61,701.87a11.74,11.74,0,1,1,18.3-14.71,35.21,35.21,0,0,0,52.28,2.92,11.74,11.74,0,0,1,16.56,16.65,58.7,58.7,0,0,1-87.14-4.86m29.13-117.44c14.17,1.93,24.66,10.88,23.42,20s-13.73,14.94-27.91,13-24.66-10.88-23.42-20S599.56,582.51,613.74,584.43ZM525,568.53c10.59,5.57,16,16.21,12,23.76s-15.79,9.15-26.38,3.58-16-16.21-12-23.76S514.44,563,525,568.53Z"></path><path class="cls-13" d="M678.81,781.76Q810,790,808.23,691.16,791.33,585.86,652,556.09c131.13,81.27,136.92,201.63,26.79,225.67"></path><path class="cls-2" d="M766.43,630.71c-26.68-31.44-68.71-59.42-119.78-76.47l-4.51-1.48C592.22,536.9,543.57,534.68,505,544c-36.22,8.76-63,27.68-72,54.8-.42,1.26.35-1-.24.87l-.06,0v0c-8.89,28,2.23,60.3,27.38,90,26.67,31.45,68.71,59.42,119.77,76.47,2.17.72,3.67,1.22,4.51,1.48,49.92,15.86,98.57,18.09,137.12,8.76,36.22-8.76,63-27.68,72-54.8.41-1.2-.34,1,.25-.86h0c8.89-28-2.23-60.31-27.37-90M655.59,527.54c56.06,18.71,102.54,49.81,132.36,85,31.34,36.94,44.7,78.74,32.68,116.64h0c-.36,1.14.17-.61-.47,1.31-12.34,37-46.53,62.2-92.13,73.23-43.27,10.46-97.32,8.14-152.25-9.31-2.31-.73-4-1.27-5-1.6-56.06-18.71-102.54-49.81-132.35-85-31.34-37-44.71-78.75-32.68-116.65h-.05c.37-1.17-.2.67.46-1.31,12.34-37,46.53-62.2,92.14-73.23,43.26-10.46,97.31-8.14,152.24,9.31C653,526.68,654.61,527.21,655.59,527.54Z"></path><path class="cls-6" d="M726.72,389.27A151.52,151.52,0,0,1,841.34,520.33,96.61,96.61,0,0,1,726.72,389.27"></path><path class="cls-2" d="M537.9,515.21q14.48,5.17,28.24,10.51l-.91,0h-10a27.88,27.88,0,0,0-4.65.39c-2.44.41-4.86.79-7.28,1.27h-10.5a28.19,28.19,0,0,0-19.69,8,14.06,14.06,0,0,1-4.9-12.3,178,178,0,1,1,350.4,59.44A333.82,333.82,0,0,1,834.84,650a458.6,458.6,0,0,1-24.75,45.09,269,269,0,0,0-6.26-12.69,29.08,29.08,0,0,0-2.67-3.76,28.3,28.3,0,0,0-6.94-9.53c-.18-.47-.38-.94-.58-1.39,5.44-9.38,10.76-19.29,15.7-29.75a305.66,305.66,0,0,0,21.82-61.78,149.8,149.8,0,1,0-293.26-61"></path><path class="cls-2" d="M720.87,453.66a9.38,9.38,0,0,1-.37-18.76,44.12,44.12,0,0,1,39,21.76,9.38,9.38,0,1,1-16.18,9.49,25.44,25.44,0,0,0-22.48-12.49"></path><path class="cls-12" d="M727.12,487.46c12.71,1.73,21.58,13.71,19.81,26.76s-13.52,22.24-26.23,20.51S699.11,521,700.88,508s13.52-22.24,26.24-20.51"></path><path class="cls-14" d="M715,487.45a12.11,12.11,0,1,1-13.32,10.41A12,12,0,0,1,715,487.45"></path><path class="cls-12" d="M603.41,456.22c11.26,1.53,19.12,12.15,17.55,23.71s-12,19.71-23.24,18.18S578.59,486,580.16,474.39s12-19.7,23.25-18.17"></path><path class="cls-14" d="M592.65,456.21a10.73,10.73,0,1,1-11.8,9.22,10.6,10.6,0,0,1,11.8-9.22"></path><path class="cls-2" d="M607.42,433A9.4,9.4,0,1,1,597,417.28a44.17,44.17,0,0,1,44.64-2.49,9.39,9.39,0,1,1-8.61,16.7A25.35,25.35,0,0,0,607.42,433"></path><path class="cls-5" d="M665.7,999.49a101.25,101.25,0,0,0,38.39,20.91,33.33,33.33,0,0,1,58.9-.77,101.24,101.24,0,0,0,39.16-23.15l.07-41a99.93,99.93,0,0,0-136.52,0Z"></path><path class="cls-2" d="M677,1024.41a115.67,115.67,0,0,1-19.7-13.53,14.11,14.11,0,0,1-5.77-11.39v-44h.07a14,14,0,0,1,4.45-10.26,113.81,113.81,0,0,1,155.18-.52,14,14,0,0,1,5,10.78l-.08,40.26a14.1,14.1,0,0,1-4.36,10.91,115.57,115.57,0,0,1-44.62,26.4v0a14.09,14.09,0,0,1-16.6-6.69,19.2,19.2,0,0,0-16.88-9.95,19.1,19.1,0,0,0-10,2.77,19.31,19.31,0,0,0-7.12,7.62h0a14.06,14.06,0,0,1-16.38,7.12,114.75,114.75,0,0,1-23.19-9.51m2.78-31.6a85.65,85.65,0,0,0,10.68,6.88,88.93,88.93,0,0,0,8.25,4,47.29,47.29,0,0,1,69.12-.95,85.63,85.63,0,0,0,8.83-4.55,86.74,86.74,0,0,0,11.39-8l0-28.26a86.15,86.15,0,0,0-108.32,0Z"></path></g></g></svg>