<svg xmlns="http://www.w3.org/2000/svg" xmlns:xlink="http://www.w3.org/1999/xlink" id="Layer_1" x="0px" y="0px" viewBox="0 0 1300 1300" style="enable-background:new 0 0 1300 1300;" xml:space="preserve"><style type="text/css">	.st0{fill:#FFFFFF;}	.st1{fill:#F0A85B;}	.st2{fill:#CC7E46;}	.st3{fill:#21100D;}	.st4{fill:#5DBA47;}	.st5{fill:#246432;}	.st6{fill:#3DA247;}	.st7{fill:#DDE56F;}	.st8{fill:#308B42;}	.st9{fill:#E7ECA0;}</style><title>Asset 11</title><g id="Layer_2_1_">	<g id="Layer_1-2">		<rect x="0" class="st0" width="1300" height="1300"></rect>		<path class="st1" d="M843.8,360.7c-34.8,9.8-67.7,25.3-97.4,45.9l0.2,0.2c3.1,3.1,6.5,6.3,9.4,9.6l7.1,8.3l14.2,14.3   c1.1,1.1,2.1,2.2,3.1,3.3l8.8,10l19.4,19.4l20.7,16.8c2.6,2.1,5,4.3,7.2,6.8l9.1,10l121.1-160.1c-8.4-30.3-30.2-55-59.2-67.1   L843.8,360.7"></path>		<path class="st2" d="M938.4,288c-1.8-0.2-3.6-0.6-5.3-1.2l-1-0.2c-3.3-0.5-6.6-1.5-9.5-3.2c-0.5-0.2-0.9-0.5-1.4-0.8l-6.2-3.3   c-0.5-0.1-0.9-0.3-1.4-0.5c-1.8-0.4-3.6-1.1-5.3-1.9c-1.4,2.4-3.2,4.5-5.2,6.4c-0.9,1.6-1.9,3.1-3,4.5c-0.9,1.8-2,3.5-3.3,5.1   c-1.3,2.8-3,5.3-5.2,7.5c-1.5,2.8-3.5,5.4-5.9,7.5c-0.4,0.4-0.8,0.8-1.2,1.1c-0.6,0.6-1.3,1.2-2,1.9c-0.9,1.2-1.9,2.3-3,3.4   c-0.9,1.2-1.9,2.3-3,3.3c-0.5,0.6-1,1.2-1.5,1.8c-1.3,1.7-2.7,3.3-4.4,4.6c-0.4,0.5-0.9,0.9-1.3,1.3c-1.2,1.6-2.6,3-4.2,4.3   c-0.4,0.4-0.8,0.9-1.3,1.3c-1.2,1.6-2.6,3-4.1,4.3c-0.8,0.8-1.5,1.6-2.4,2.3c-0.7,0.9-1.5,1.8-2.3,2.7c-2.4,4.4-5.9,8.1-10.2,10.6   c-5,6.7-12.8,10.8-21.2,10.9c-0.7,0.4-1.4,0.7-2.2,1l-6.3,2.5l-7.8,3.9c-0.6,0.3-1.1,0.5-1.8,0.8c-3,3-6.7,5.3-10.8,6.6   c-2,1.6-4.2,3.1-6.5,4.3l-13.1,6.6l-7.4,4.9c-2.9,1.9-6.2,3.3-9.7,4l0,0c-1.2,0.8-2.4,1.5-3.6,2.1c-0.9,1.3-1.9,2.5-3,3.6   l-5.5,5.4c2.2,3,4.2,6.2,5.8,9.6l2.9,5.9l1.5,2.5l3.3,3.3c3.1,3.1,6,6.6,8.4,10.3l8.8,13.2c2,3.1,3.8,6.4,5.7,9.6l8.4,10.5   c0.8,0.9,1.5,1.9,2.2,2.9l7.1,10c2.4,3.3,4.4,6.7,6.2,10.4l140.7-185.9C945.2,302.1,942.2,294.8,938.4,288"></path>		<path class="st3" d="M836.8,350.4c-31.8,9.4-62.1,23.4-89.8,41.6l0.9,0.5l14.2,7.1c1,0.5,2,1.1,2.9,1.7l5.5,3.7   c23.9-14.4,49.6-25.5,76.4-33c2.4-0.7,4.6-2.1,6.2-4.1l0,0l57.8-75.2c6.3,3.4,12.2,7.5,17.5,12.3l-34.2,47.9   c-0.1,0.1-0.1,0.2-0.2,0.3c-1.3,1.9-0.7,4.6,1.2,5.8c1.9,1.3,4.6,0.7,5.8-1.2l33.5-46.8c8.5,9.2,15,20,19.1,31.8l-92.8,122.5   l4.1,3.2c0.8,0.6,1.5,1.3,2.2,2l7.8,7.8c1.5,0.6,2.9,1.1,4.3,1.8L976,352.2l0,0c2.2-2.9,3-6.7,2-10.3c-9.4-33.7-33.7-61.3-66-74.8   l0,0c-4.9-2-10.6-0.5-13.8,3.7L836.8,350.4"></path>		<path class="st1" d="M473.1,900c-2.7-129.4,71.9-255.4,218.5-343.4L801.8,598l-308,424c-31.4,0.8-61.4-12.9-81.4-37.2L473.1,900"></path>		<path class="st2" d="M430.9,1011.6c-0.7-1.7-1.6-3.2-2.7-4.7c-0.2-0.3-0.3-0.6-0.5-0.9c-1.4-3.1-3.4-5.8-5.8-8.2   c-0.4-0.4-0.8-0.8-1.1-1.1l-4.6-4.6l-0.4-0.4c-0.3-0.4-0.5-0.8-0.8-1.2c-1-1.6-2.1-3.1-3.4-4.5c1.9-2,3.4-4.3,4.6-6.8   c1.3-1.3,2.4-2.7,3.4-4.2c1.5-1.4,2.8-3,3.9-4.7c4-4.7,7.7-9.7,11.1-14.9c0.3-0.5,0.5-1,0.7-1.5c0.4-0.8,0.8-1.6,1.2-2.4   c0.9-1.2,1.7-2.5,2.3-3.9c0.9-1.2,1.6-2.5,2.3-3.8c0.5-0.6,0.9-1.3,1.3-2c1.3-1.7,2.3-3.6,3.2-5.5c0.3-0.5,0.6-1.1,0.9-1.7   c1.2-1.6,2.2-3.4,2.9-5.2c0.3-0.5,0.6-1.1,0.9-1.6c1.2-1.6,2.2-3.4,2.9-5.2c0.9-2.1,2.1-4.1,3.4-5.9c5.9-6,8.8-14.4,7.6-22.7   c-2-14.8-15.6-25.1-30.4-23.1c5.3-122,79.5-239.4,218.3-322.7l110.2,41.5l-307.9,424C446.5,1013.9,438.6,1013.2,430.9,1011.6"></path>		<path class="st3" d="M451.8,1001.2l1.9,0.9c10.7,4.9,22.3,7.6,34.1,8.1l295.3-406.6l-90.3-34c-68.1,41.8-119.9,91.9-154.7,146.7   c-36.5,57.5-54.5,120.1-53.2,183.5c0.1,2.5-0.7,5-2.2,7.1l0,0l-55.1,77.2c5.1,5,10.7,9.4,16.8,13.2l35.8-46.7c0,0,0.1-0.1,0.1-0.1   c1.4-1.8,4.1-2.1,5.9-0.7c1.8,1.4,2.1,4.1,0.7,5.9L451.8,1001.2z M518.2,703.6c37.5-58.9,93.4-112.7,166.9-156.9   c3.1-2.1,7.1-2.5,10.6-1.2l109.7,41.3c1.2,0.4,2.3,0.9,3.3,1.7c0,0,0,0,0,0c5.3,3.8,6.4,11.2,2.6,16.5l-307.9,424l0,0   c-2.2,3-5.6,4.8-9.2,4.9c-35,0.8-68.4-14.4-90.8-41.4l0,0c-3.4-4.1-3.6-10-0.5-14.3l58.4-81.8   C460.7,829.5,479.9,763.8,518.2,703.6z"></path>		<path class="st4" d="M623.7,394.3l16.4,131.2l37.5,83.6c0,0-3.3,7.1-4.2,8.6s-6.8,34.4-6.8,34.4l21.4-2.8l21.1,12.2   c0,0,6.1,4.6,7,4.8s10.4,29.8,13.2,29.6s-12.1,18.5-14.7,24.8s-13.4,16-16.1,18.1s-35.4-3.6-42.8-7.4s-15.2-28.6-15.2-31.8   s-8.6,7.4-8.6,7.4l-55,46.4c0,0,10.7,2.1,14.3,3s25,21.7,25,21.7s11,64.6,13.7,64.6s-8.6,16.4-8.6,16.4l-34.8,42l-38.9,15.9   l-81.3-11.4l-39.3-29.2l-31.5-30l-28.2-70l-12.8-68.4l1.2-63.7l-3.3-10.4c0,0-15.5-4.5-15.5-9.2s4.2-22,4.2-22l11-42.8l55.3-68.1   L396,473.5c0,0,11-19.4,11.9-20.9s14.6-15.5,23.5-22.9s21.4-10.1,36-17.3s18.1-7.7,45.5-12.8s17-5.7,15.8-11.6   c-1-5.1-1-10.4,0-15.5c0.9-5.1,15.5-6.2,20.2-8.3s23.2-4.5,25.3-4.5s29.1,12,29.1,12L623.7,394.3z"></path>		<path class="st5" d="M444.7,427.1c5.8,0,11.4-1.9,16-5.3c4.1-2.4,8.2-4.8,12.5-6.9c2.7-0.9,5.2-2.3,7.4-4c3.2-2.1,6.3-4.2,9.4-6.4   c1.8-0.5,3.5-1.2,5.1-2.1c1.7-0.8,3.3-1.7,4.9-2.9l0.5-0.2c2.1-1.1,4.1-2.4,5.9-4c1.1-0.7,2.2-1.5,3.2-2.3   c-11.1,46.2-5.4,94.9,16.1,137.3c7.5,14.9,1.5,33.1-13.4,40.6c-14.9,7.6-33.1,1.6-40.7-13.4c-19.3-38.1-28.9-80.3-28-123   c0-2.5,0.1-4.9,0.2-7.4L444.7,427.1z"></path>		<path class="st5" d="M365.4,537.3c0.7-0.3,1.4-0.7,2.2-1c4.7-2.2,8.7-5.6,11.6-10c1-1,1.8-2,2.7-3.1l0.6-0.9   c8.5-3.6,15.3-10.4,18.9-18.9l7.7-16.1l2.9-4.3c1.5-2.3,2.7-4.9,3.5-7.5l1.3-4.4l2.8-6.3c0.1-0.2,0.2-0.5,0.3-0.7   c2.1-3.5,3.4-7.4,3.7-11.5l4.9-12c1.9-1.2,3.6-2.7,5.1-4.4c0.3-0.3,0.6-0.5,0.9-0.8c2-1.3,3.8-2.9,5.8-4.4l1.7-1.1   c1.5-1,2.9-2.2,4.2-3.5c-28.3,56.6-28,123.3,0.6,179.8c7.5,14.9,1.5,33.1-13.4,40.6c-14.9,7.6-33.1,1.6-40.7-13.4   C377.4,603.4,368.1,570.8,365.4,537.3"></path>		<path class="st6" d="M615,572.4c-1-8.9-17.3-66.9-24.2-125.7c-19.7,126.8-41,170.8-115.6,202.6c-34,14.2-44.1,51.2-39.2,84.7   c4.9,33.5,29.1,61,61.8,70l77.3-152.8c-0.6-0.7-1.1-1.3-1.6-2c-4.4-4.9-6.8-11.3-6.8-17.9c0-14.9,12.1-27,27-27h1.4   c1.3,0,2.5,0.1,3.8,0.3L615,572.4"></path>		<path class="st5" d="M609.5,632c2.5,2.8,4.4,6,5.5,9.5c0.3,1.1,0.7,2.2,1,3.3c0.7,1.7,1.2,3.4,1.6,5.2l0.1,0.4   c1.3,1.9,2.3,4,3,6.1c0.1,0.2,0.2,0.3,0.4,0.5l24.9-45.8c4.8-10.2-8-45.9-38.4-107.2c1.1,35.5-7.6,70.7-25,101.7   c8.4,0.6,16,5,20.7,12l0.6,0.9c1.5,2.1,2.6,4.4,3.4,6.9l1.2,3.5C609,629.9,609.3,631,609.5,632 M596.4,702.7   c-2.1-0.5-4.1-1.2-6-2.2l-1.2-0.6c-5.4-2.6-9.8-6.8-12.7-12c-1-1.3-2-2.7-2.8-4.2c-0.7-1.1-1.4-2.2-1.9-3.3   c-1.9-4.3-3.7-8.6-5.3-13c-4.8-4.5-7.8-10.7-8.4-17.3c-0.1-0.2-0.1-0.5-0.2-0.7c-0.3-1.2-0.6-2.4-0.9-3.6c-0.1-0.5-0.2-1-0.3-1.4   c-0.3-0.6-0.6-1.2-0.8-1.8c-15.9,17.2-34.7,31.3-55.6,41.8c-9.8,5.1-17.7,13.3-22.5,23.3c-12.2,25.5-1.3,56,24.2,68.2l77.5-42.3   L596.4,702.7z"></path>		<path class="st7" d="M632.3,706.2c2.1,0.5,4.2,0.8,6.3,0.8h0.6c-18.7,22.7-41.8,41.5-67.9,55.1c-12.1,6-26.9,1.3-33.4-10.5   c-6.7-12.3-2.2-27.6,10-34.3c13.9-7.3,26.8-16.4,38.2-27.2c4.9,8.1,13.7,13.1,23.2,13.1c0.8,0,1.6,0,2.4,0c2,0.8,4.1,1.3,6.2,1.6   c2.3,0.6,4.7,0.9,7.1,0.9h2.4C629.1,705.9,630.7,706.1,632.3,706.2 M666.6,664.7c-5-7.3-13.4-11.7-22.2-11.7h-1.7   c-0.9-0.2-1.8-0.4-2.7-0.5c-0.9-0.6-1.9-1.2-2.9-1.7l-1.4-0.7c-2.2-1.1-4.5-1.9-6.8-2.3l-0.8-0.4c-2.2-1.6-4.7-2.9-7.3-3.8   c6.4-12.5,11.1-25.8,14.2-39.5c3-13.6,16.5-22.2,30-19.2s22.2,16.5,19.2,30C680.3,632.2,674.4,648.9,666.6,664.7z"></path>		<path class="st7" d="M630.3,666.6c13.1-2.3,24.2-4.2,33.1-5.8l11.2-2c0.5-0.1,1-0.2,1.4-0.3l0,0c21.6-3.9,42.8,8.7,49.6,29.6   c7.6,23.1-5,47.9-28.1,55.5c-6.9,2.1-14.2-1.6-16.6-8.4c-2.5-7,1.1-14.7,8.2-17.2l0,0c9.1-2.3,14.7-11.6,12.4-20.7   c-2.3-9.1-11.6-14.7-20.7-12.4l0,0c-2.2,0.5-6.4,1.3-12.7,2.4c-6.4,1.2-17.8,3.2-34.1,6l-0.4,0.1c-12.2,2.1-24.2-5-28.3-16.7   l-22.1-64.2c-2.3-7,1.4-14.5,8.3-16.9c7-2.5,14.7,1.2,17.2,8.2L630.3,666.6z"></path>		<path class="st3" d="M636.5,715.1c-22.6,4-36.6,5-48.2-0.5c-17.4-8.2-23-26.6-35-65.7l-0.5-1.8c-0.1-0.3-0.2-0.6-0.3-0.9   l-17.9-62.6c-1.8-6.3,1.9-12.8,8.1-14.6s12.8,1.9,14.6,8.1l17.9,62.6c0,0.2,0.1,0.3,0.1,0.5l0.5,1.7c9.9,32.3,14.7,47.6,22.6,51.3   s23.9,0.6,54.2-5.2c5.2-1,11-2.1,21-3.9c6.3-1,12.2,3.1,13.5,9.3c1.3,6.4-2.9,12.6-9.2,13.9c-4.4,0.8-10.8,2-17.2,3.3   c6.9,11.2,20.3,16.7,33.1,13.6c16.4-4,26.4-20.5,22.5-36.8s-20.5-26.4-36.8-22.5l-0.7,0.1l0,0l-44.7,7.8c-5.7,1-11.3-2.3-13.2-7.8   l0,0l0,0l-22.1-64.1c0-0.1-0.1-0.2-0.1-0.3c-2-6.2,1.3-12.9,7.5-14.9c6.2-2,12.9,1.3,14.9,7.5l18.8,54.7l34.8-6.1l0,0   c25.8-5.8,52,7.8,62,32.2c11.3,27.6-1.9,59.2-29.5,70.6S647.9,742.7,636.5,715.1"></path>		<path class="st7" d="M499.9,773.9c16.9-23.9,46.3-35.6,75-29.7c27.1,5.5,49.4,24.8,58.9,50.8c0.1,0.1,0.1,0.2,0.1,0.2   c14.6,38.5,1.6,82-31.8,106.2c-0.4,0.3-0.8,0.6-1.2,0.8c-31.7,22-71.1,29.8-108.7,21.4l0,0c-11.8-2.6-19.2-14.3-16.6-26   s14.3-19.2,26-16.6c25.7,5.7,52.6,0.5,74.2-14.6c0.2-0.2,0.4-0.3,0.7-0.5c17.3-12.6,24-35.1,16.6-55.1c-0.1-0.4-0.3-0.7-0.4-1   c-4.3-11.7-14.3-20.3-26.6-22.8c-5.7-1.2-11.6-0.7-17,1.5c-2.3,0.9-4.5,2.1-6.5,3.6c3,0.7,5.9,1.8,8.6,3.3   c14.6,8.3,19.7,27,11.4,41.6s-27,19.7-41.6,11.4s-19.7-27-11.4-41.6c-1.5-0.6-3-1.4-4.4-2.4C495.3,797.5,492.9,783.8,499.9,773.9"></path>		<path class="st7" d="M342,595.8c0.1-0.3,0.2-0.5,0.4-0.7L342,595.8 M583.2,406c-3.8,20-22.2,33.9-42.5,31.9   c-31.5-1.6-62.7,7.6-88.2,26.2c2.2,8.9,1.3,18.3-2.7,26.5c-0.6,1.2-1.3,2.4-2,3.5c-2.3,3.7-5.1,6.9-8.5,9.6   c-34.8,28.2-61.5,65.2-77.2,107.2c-5.1,13.8-20.3,20.9-34.1,16c2.5-3.4,4.5-7.1,6-11c0.2-0.3,0.4-0.7,0.5-1.1   c0.6-1.2,1.2-2.4,1.7-3.6c0.6-1,1.1-2,1.5-3c1.4-2.4,2.3-5.1,2.9-7.8c0.2-0.7,0.4-1.5,0.6-2.3c0.3-0.8,0.5-1.6,0.8-2.4   c1.9-2.4,3.3-5.1,4.3-8l1.7-5.2c0.6-1.2,1.2-2.5,1.7-3.8l-0.2,0.7c1.2-1.9,2.1-4,2.8-6.2l0.1-0.3l1.3-3.1c0.1-0.3,0.3-0.6,0.4-0.9   c1-1.6,1.8-3.2,2.4-4.9l1-2.4c0.5-1.1,0.8-2.3,1.2-3.5c0.9-1.6,1.7-3.3,2.3-5c0.7-1.4,1.2-2.9,1.6-4.4v0.1l0.4-0.9   c0.6-1.1,1-2.3,1.5-3.5l0.9-1.8c2.7-3.6,5.1-7.4,7.3-11.3c1.1-1.2,2-2.6,2.9-4c0.9-1,1.7-2,2.5-3.1l0,0c1.6-1.5,3.1-3.2,4.3-5   c1.2-1.5,2.3-3,3.2-4.7l-1.1,2.2l0.4-0.4c1.8-1.8,3.3-3.8,4.5-5.9c1-1.3,1.9-2.6,2.6-4.1l-0.2,0.5c0.6-0.8,1.2-1.6,1.7-2.5   c0.2-0.3,0.4-0.6,0.6-0.9c0.9-1,1.6-2.1,2.3-3.2c1-1.3,1.8-2.8,2.5-4.2c0.5-1,1-2,1.5-3c1.4-2.4,2.4-5.1,2.9-7.8l0.3-1   c0.9-2.8,1.4-5.6,1.4-8.5v-4.7c0-2.6-0.4-5.2-1.1-7.7c-0.2-0.9-0.4-1.8-0.7-2.7c0.9-1.3,1.6-2.6,2.3-4c0.4-0.6,0.7-1.1,1.1-1.7   c1-1.1,1.9-2.2,2.7-3.4c0.7-0.8,1.4-1.7,2-2.7c0.5-0.8,1-1.6,1.5-2.3s1-1.4,1.4-2.1c0.5-0.5,1-1,1.5-1.6c2-1.2,3.8-2.6,5.4-4.2   c0.5-0.4,1-0.7,1.5-1c2.4-1.3,4.7-2.9,6.6-4.8c1.2-0.9,2.4-1.8,3.5-2.9l0.8-0.4c2.2-1.2,4.4-2.5,6.4-4c0.9-0.6,1.7-1.2,2.5-1.9   c1.8-0.9,3.5-2.1,5.1-3.4c0.8-0.6,1.6-1.1,2.4-1.8c0.5-0.4,1-0.7,1.5-1.1c1.7-0.8,3.3-1.8,4.8-3c0.6-0.3,1.2-0.7,1.7-1   c1.4-0.5,2.8-1.1,4.1-1.9c0.3-0.1,0.6-0.3,0.9-0.4c2.5-0.7,5-1.8,7.2-3.1c1.2-0.4,2.4-0.8,3.6-1.4c0.3-0.1,0.6-0.2,0.9-0.3   c0.6-0.2,1.2-0.4,1.8-0.6c1.8-0.4,3.5-0.9,5.2-1.5c1.8-0.3,3.5-0.7,5.2-1.4c0.4-0.1,0.8-0.3,1.3-0.4c1.8-0.3,3.6-0.7,5.3-1.4   c0.8-0.2,1.6-0.4,2.4-0.6c1.4-0.3,2.8-0.7,4.2-1.2c3.1,0,6.2-0.6,9.2-1.7c1-0.3,2-0.6,2.9-1l2.4-1c12-4.8,19-17.5,16.5-30.2   c4.2-5.9,10.6-9.9,17.7-11c19.6-3.1,39.5-2.9,59.1,0.4c0.9,0.1,1.8,0.3,2.6,0.5c14.5,3.3,23.7,17.7,20.4,32.3   c-3.3,14.5-17.7,23.7-32.3,20.4C593.3,406.9,588.3,406.3,583.2,406z"></path>		<path class="st3" d="M545.5,792.4c7.2-2,15-1.5,21.8,1.6c6.9,3.1,12.5,8.5,15.7,15.2c3.3,6.8,4.1,14.5,2.4,21.8   c-1.6,7.1-5.5,13.4-10.9,18.2l0,0c-8.2,7.8-19.2,12-30.1,13c-11.7,1.1-23.7-1.5-32.2-7.4l-0.3-0.2c-8.3-5.6-14.8-13.5-18.6-22.8   c-4.1-9.7-5.8-20.4-4.9-30.9c1.1-11,5.2-21.5,11.8-30.3c6.8-9.2,15.7-16.6,26-21.5c11-5.3,23.1-8,35.3-7.9c1.4,0,2.8,0.1,4.2,0.2   c19.4-9.8,36.9-22.9,51.8-38.6c0.1-0.1,0.2-0.3,0.4-0.4c4.6-4.6,12.1-4.6,16.7,0s4.6,12.1,0,16.7c-8.6,9.1-18,17.3-28,24.7   c-3.1,2.3-6.2,4.5-9.4,6.6c13.5,7.5,24.7,18.5,32.4,32c7.9,13.8,12,29.4,11.8,45.3c0.3,29-12.6,53.6-33.2,71.2   c-11.3,9.5-24.2,16.9-38.2,21.8c-14.7,5.1-30.1,7.8-45.7,8c-41.5,0.5-86.5-16.3-121.1-56.6c-30.8-35.9-48.2-76.2-56.5-118.3   c-7.1-36.3-7.2-73.9-3.2-111.2c-2.1,0.6-4.2,1.2-6.3,1.9c0,0,0,0,0,0c-6.2,2.1-12.8-1.2-14.9-7.4c-0.7-2.1-0.8-4.3-0.3-6.4   c10.2-54,35.3-104.1,72.5-144.7c-1.2-0.5-2.4-1-3.6-1.5c-6-2.4-9-9.3-6.5-15.3c0.4-1,0.9-1.9,1.5-2.7   c16.9-24.2,39.2-44.2,65.2-58.3c21-11.4,44-18.5,67.8-21.1c-1.5-3.1-3.2-6.1-5.1-8.9c-3.6-5.4-2.2-12.7,3.2-16.3   c0.8-0.6,1.7-1,2.7-1.3l0,0c18-6.3,36.9-9.6,55.9-9.9c18.9-0.3,37.6,2.6,55.6,8.5c0.2,0.1,0.4,0.1,0.6,0.2c6.1,2.2,9.3,9,7.1,15.1   c-2.2,6.1-9,9.3-15.1,7.1c-15.4-5.1-31.6-7.6-47.9-7.4c-11.8,0.1-23.6,1.7-35,4.5l0.3,0.8c2.2,5,4,10.2,5.3,15.5l0,0   c0.2,0.9,0.3,1.8,0.3,2.7c0.1,6.5-5.1,11.8-11.6,11.9c-25.6,0.4-50.7,7-73.1,19.3c-18.8,10.2-35.4,23.9-48.9,40.3   c2.4,1.4,4.7,2.8,6.9,4.3l0,0c0.6,0.4,1.2,0.9,1.8,1.5c0,0,0,0,0,0c4.6,4.6,4.5,12.1-0.1,16.6c-35.1,34.5-60.2,77.9-72.6,125.6   c2.3-0.4,4.5-0.7,6.7-1l0,0c1-0.1,2-0.1,3,0c6.4,0.9,10.9,6.9,10,13.3c-5.6,40.1-6.5,80.8,1,119.6c7.5,38.3,23.3,75,51.2,107.5   c29.5,34.4,67.8,48.8,102.9,48.4c13-0.1,25.8-2.4,38.1-6.7c11.2-3.9,21.7-9.8,30.8-17.4c15.5-13.3,25.2-31.7,25-53.3v-0.4   c0.2-11.7-2.8-23.2-8.6-33.3c-5.5-9.9-13.8-17.9-23.7-23.3c-7.5-3.9-15.7-5.9-24.1-6c-8.7-0.1-17.2,1.8-25.1,5.6   c-6.7,3.3-12.6,8.1-17,14.2c-4.1,5.3-6.6,11.7-7.3,18.3c-0.6,6.7,0.4,13.4,2.9,19.7c2.1,5,5.5,9.3,10,12.4l0.6,0.4   c4.1,2.8,10.3,4,16.8,3.4c6-0.6,11.8-2.7,16-6.7l0,0l0.6-0.5c1.8-1.5,3.1-3.5,3.6-5.8c0.5-2.1,0.3-4.3-0.6-6.3   c-0.9-1.8-2.3-3.2-4.1-4c-1.9-0.8-4.1-1-6.1-0.4c-0.3,0.1-0.5,0.1-0.8,0.2c-6.3,1.5-12.7-2.4-14.2-8.7S539.2,793.8,545.5,792.4    M675.4,657.6L675.4,657.6c-2.6,6-9.5,8.7-15.5,6.1s-8.7-9.5-6.1-15.5c8.2-18.8,13.4-38.8,15.2-59.2c0-0.5,0.1-1,0.1-1.4   c1-6.4,6.9-10.9,13.4-9.9c6.4,1,10.9,6.9,9.9,13.4C690.3,614,684.6,636.4,675.4,657.6z"></path>		<path class="st4" d="M826.2,621.5c31.4,0.8,59.4-19.8,84.2-61.7c56.2-6.3,56.2-52.4,0-138.4c-31.6-58.2-91-95.9-157.1-99.8   c-109.7-3.4-159.3,9.3-149,38c-8.8,107.9,2.4,179.6,33.7,215.1C668,613.9,730.7,629.5,826.2,621.5"></path>		<path class="st8" d="M711.9,611.2c83.6,19,138.4,16.1,164.4-8.8c50.1-42.9,13.3-56.2-110.5-39.8c-27.1,2.3-61.7-11-103.9-40   c-27.9-33.9-43.3-84.5-46.3-151.7c-25.7,93.8-13.2,164,37.7,210.6C657,599.1,676.6,609,711.9,611.2"></path>		<path class="st4" d="M905,585.4c-15.3,26.4-43.1,42.9-73.5,43.8c-11.1,0.3-20.4-8.5-20.7-19.6c-0.3-11.1,8.5-20.4,19.6-20.7   c16.5-0.5,31.5-9.5,39.7-23.8c5.6-9.1,17.4-12.2,26.7-7.1C906.6,563.3,910.2,575.5,905,585.4"></path>		<path class="st7" d="M903.3,523.2c0.2-0.3,0.2-2.1-0.1-5.3c-0.4-6.2-2.3-14.1-5.5-23.7c-9.8-24.1-20-44.5-30.6-61.1   c-10.2-16-20.8-28.7-31.9-38l-0.4-0.3l0,0c-10.8-9.5-23.5-16.7-37.1-21.2c-14.8-5-31.6-7.5-50.4-7.5h-0.3l-80.5-1.1   c-14-0.2-25.2-11.7-25.1-25.7c0.2-14,11.7-25.2,25.7-25.1l80.4,1.1l0,0c24.3,0.1,46.3,3.4,66.2,10.1c20.1,6.6,38.7,17.2,54.6,31.2   l0,0c14.7,12.5,28.5,28.9,41.4,49.2c12.6,19.8,24.3,43,35.1,69.6l0,0c0.2,0.5,0.4,0.9,0.5,1.4c4.9,14.3,7.7,26.7,8.4,37.4   c1,13.8-1.4,25.5-7.1,35l0,0c-7.2,12-22.8,16-34.8,8.8C900,550.7,896.1,535.2,903.3,523.2"></path>		<path class="st3" d="M914.6,575.1c-6,16.2-16.6,30.3-30.6,40.5c-17,12.3-37.6,18.7-58.6,18.2l0,0l-83.4-0.3h-0.4   c-40.6-0.8-79.1-17.8-107.2-47.1c-27-28.1-43.6-66.6-43.6-109.6V370.8v-0.4c0-8.2,1.4-16.3,4-24c2.8-7.8,7.4-14.9,13.5-20.5   c6-5.8,13.3-10,21.3-12.3c7.2-2.2,15.1-2.9,23.6-2.9h0.1l95,1.3l0,0c51.7,0.2,91.5,14.1,124.4,42.3c32,27.5,56.9,68.4,79.4,123.2   c0.1,0.3,0.3,0.5,0.4,0.8c6.7,16.1,9.7,30.3,9.9,42.5c0.2,12.5-2.7,23-7.8,31.4c-5.1,8.5-12.8,15.1-22,18.9   C926.9,573.5,920.8,574.8,914.6,575.1 M682.6,509.3c8.3,12.8,19.7,23.3,33.2,30.3c14.1,7.3,29.7,11.1,45.5,10.9l0,0l0,0H912h0.8   c3.5-0.1,7-0.8,10.3-2.2c4.3-1.8,8-4.9,10.4-8.8c2.8-4.6,4.3-10.7,4.2-18.3c-0.1-9.1-2.6-20.2-8.1-33.3c-0.1-0.3-0.2-0.6-0.3-1   c-21-51.2-43.8-89-72.6-113.8c-28.3-24.3-63-36.3-108.5-36.4h-0.2l-95-1.3c-5.5-0.1-11.1,0.5-16.4,2c-4.3,1.2-8.2,3.4-11.4,6.5   c-3.3,3.1-5.8,6.9-7.3,11.1c-1.7,5.2-2.6,10.6-2.6,16l0,0v105.9c0,36.4,14,68.9,36.7,92.5c23.5,24.6,55.9,38.8,89.9,39.5l0,0   l83.6,0.3h0.2c15.6,0.4,30.9-4.3,43.5-13.4c7.4-5.4,13.6-12.4,18.1-20.4h-126l0,0c-19.9,0.2-39.5-4.5-57.1-13.7   c-17.3-9.1-32-22.5-42.5-39c-3.7-5.7-2-13.4,3.8-17C671.3,501.9,679,503.5,682.6,509.3L682.6,509.3z"></path>		<path class="st9" d="M810.2,393.1C810.2,393.1,810.2,393.1,810.2,393.1c34.4,0,62.2,27.8,62.2,62.2c0,34.3-27.8,62.2-62.2,62.2   c-34.4,0-62.2-27.8-62.2-62.2C748,420.9,775.9,393.1,810.2,393.1"></path>		<path class="st3" d="M821.1,462.3c-0.4-5.9-5.1-10.6-11-11c-6.5-0.4-12.1,4.5-12.5,11c-0.4,5.8-5.4,10.3-11.2,9.9   c-5.8-0.4-10.3-5.4-9.9-11.2c1.3-16.2,14.1-29.1,30.3-30.3c18.2-1.4,34,12.2,35.5,30.3c0.2,5.6-4,10.4-9.6,10.9   C826.7,472.5,821.6,468.2,821.1,462.3"></path>		<path class="st3" d="M907,508.1L907,508.1c8.7,0,15.8,7.1,15.8,15.8c0,8.7-7.1,15.8-15.8,15.8s-15.8-7.1-15.8-15.8   C891.2,515.1,898.3,508.1,907,508.1"></path>		<path class="st3" d="M773.7,418.8c-9.7,9.7-15.1,22.8-15.1,36.5c0,13.7,5.4,26.8,15.1,36.5c20.2,20.1,52.8,20.1,73,0   c20.1-20.2,20.1-52.8,0-73C826.6,398.6,793.9,398.6,773.7,418.8 M810.2,382.5c19.3,0,37.8,7.6,51.5,21.3   c13.7,13.7,21.3,32.2,21.3,51.5c0,40.2-32.6,72.8-72.8,72.8s-72.8-32.6-72.8-72.8S770,382.5,810.2,382.5L810.2,382.5z"></path>		<path class="st7" d="M720.9,401.1L720.9,401.1c6.7,0,12.1,5.4,12.1,12.1c0,6.7-5.4,12.1-12,12.1c-6.7,0-12.1-5.4-12.1-12   S714.2,401.1,720.9,401.1"></path>		<path class="st7" d="M690.4,418.6c5.4,0,9.7,4.4,9.7,9.7l0,0c0,5.4-4.4,9.7-9.7,9.7c-5.4,0-9.7-4.4-9.7-9.7   C680.7,423,685,418.6,690.4,418.6"></path>	</g></g></svg>